<svg width="18" height="21" viewBox="0 0 18 21" fill="none" xmlns="http://www.w3.org/2000/svg">
<path fill-rule="evenodd" clip-rule="evenodd" d="M3.47458 0.715509C5.16252 -0.409786 7.37968 0.621862 7.70853 2.51661H11C12.5188 2.51661 13.75 3.74783 13.75 5.26661C13.75 5.68083 13.4142 6.01661 13 6.01661C12.5858 6.01661 12.25 5.68083 12.25 5.26661C12.25 4.57626 11.6904 4.01661 11 4.01661H7.75V16.5166H11C11.6904 16.5166 12.25 15.957 12.25 15.2666C12.25 14.8524 12.5858 14.5166 13 14.5166C13.4142 14.5166 13.75 14.8524 13.75 15.2666C13.75 16.7854 12.5188 18.0166 11 18.0166H7.70853C7.37968 19.9114 5.16252 20.943 3.47458 19.8177L1.47457 18.4844C0.709528 17.9744 0.25 17.1157 0.25 16.1962V4.33698C0.25 3.41751 0.709528 2.55887 1.47457 2.04884L3.47458 0.715509ZM12.5302 7.73627C12.8231 8.02916 12.8231 8.50404 12.5302 8.79693L11.8105 9.5166L16.9998 9.5166C17.4141 9.5166 17.7499 9.85239 17.7499 10.2666C17.7499 10.6808 17.4141 11.0166 16.9998 11.0166L11.8105 11.0166L12.5302 11.7363C12.8231 12.0292 12.8231 12.504 12.5302 12.7969C12.2373 13.0898 11.7624 13.0898 11.4695 12.7969L10.1766 11.504C9.49321 10.8206 9.49321 9.71258 10.1766 9.02916L11.4695 7.73627C11.7624 7.44338 12.2373 7.44338 12.5302 7.73627Z" fill="#28303F"/>
</svg>
